<!-- Generated by IcoMoon.io -->
<svg version="1.1" xmlns="http://www.w3.org/2000/svg" width="32" height="32" viewBox="0 0 32 32">
<title></title>
<g id="icomoon-ignore">
    <line stroke-width="1" x1="16" y1="0" x2="16" y2="32" stroke="#449FDB" opacity="0.3"></line>
    <line stroke-width="1" x1="0" y1="16" x2="32" y2="16" stroke="#449FDB" opacity="0.3"></line>
</g>
<path d="M16 6.717c-4.502 0-8.251 1.227-10.95 2.51s-4.399 2.661-4.654 2.855l-0.395 0.303 15.747 19.614h0.504l0.147-0.183 15.602-19.431-0.399-0.305c-0.253-0.193-1.953-1.57-4.652-2.854s-6.449-2.51-10.95-2.51zM16 7.694c4.324 0 7.932 1.178 10.532 2.415 2.351 1.118 3.534 2.087 4.047 2.485l-14.579 18.158-14.579-18.158c0.512-0.397 1.696-1.368 4.047-2.485 2.6-1.236 6.208-2.415 10.532-2.415z"></path>
</svg>
