<!-- Generated by IcoMoon.io -->
<svg version="1.1" xmlns="http://www.w3.org/2000/svg" width="32" height="32" viewBox="0 0 32 32">
<title></title>
<g id="icomoon-ignore">
    <line stroke-width="1" x1="16" y1="0" x2="16" y2="32" stroke="#449FDB" opacity="0.3"></line>
    <line stroke-width="1" x1="0" y1="16" x2="32" y2="16" stroke="#449FDB" opacity="0.3"></line>
</g>
<path d="M16 6.305c-4.502 0-8.251 1.226-10.948 2.508s-4.402 2.663-4.645 2.847l-0.406 0.306 5.835 7.269c-0.010 0.008-0.021 0.015-0.031 0.023 1.197 1.437 2.368 2.897 3.544 4.353l6.611 8.236c0.041 0.051 0.081 0.102 0.121 0.152l0.329-0.61 15.59-19.423-0.406-0.306c-0.244-0.184-1.948-1.565-4.645-2.847s-6.446-2.508-10.948-2.508zM16 7.291c4.323 0 7.927 1.178 10.525 2.412 2.345 1.115 3.52 2.076 4.041 2.478l-5.177 6.451c-0.446-0.338-1.258-0.926-2.595-1.563-1.686-0.804-4.009-1.563-6.792-1.563s-5.108 0.759-6.794 1.563c-0.929 0.417-1.762 0.988-2.576 1.586l-5.198-6.474c0.521-0.401 1.696-1.363 4.041-2.478 2.598-1.235 6.202-2.412 10.525-2.412z"></path>
</svg>
