<!-- Generated by IcoMoon.io -->
<svg version="1.1" xmlns="http://www.w3.org/2000/svg" width="32" height="32" viewBox="0 0 32 32">
<title></title>
<g id="icomoon-ignore">
    <line stroke-width="1" x1="16" y1="0" x2="16" y2="32" stroke="#449FDB" opacity="0.3"></line>
    <line stroke-width="1" x1="0" y1="16" x2="32" y2="16" stroke="#449FDB" opacity="0.3"></line>
</g>
<path d="M16 6.457c-4.502 0-8.251 1.226-10.948 2.509s-4.402 2.663-4.645 2.847l-0.406 0.306 15.96 19.881 0.422-0.422 0.015-0.019 15.603-19.44-0.406-0.306c-0.244-0.184-1.948-1.565-4.645-2.847s-6.446-2.508-10.948-2.508zM16 7.443c4.323 0 7.927 1.178 10.525 2.412 2.345 1.115 3.52 2.076 4.041 2.478l-7.649 9.53c-0.364-0.269-0.93-0.662-1.838-1.095-1.26-0.601-2.998-1.169-5.079-1.169s-3.817 0.567-5.077 1.169c-0.907 0.433-1.474 0.826-1.838 1.095l-7.651-9.53c0.521-0.401 1.696-1.363 4.041-2.478 2.598-1.235 6.202-2.412 10.525-2.412z"></path>
</svg>
