<?xml version="1.0" encoding="utf-8"?>
<!-- Generator: Adobe Illustrator 21.1.0, SVG Export Plug-In . SVG Version: 6.00 Build 0)  -->
<svg version="1.1" id="Layer_1" xmlns="http://www.w3.org/2000/svg" xmlns:xlink="http://www.w3.org/1999/xlink" x="0px" y="0px"
	 viewBox="0 0 304.6 101.9" style="enable-background:new 0 0 304.6 101.9;" xml:space="preserve">
<style type="text/css">
	.st0{fill:#45D326;}
</style>
<g>
	<path class="st0" d="M68.7,6.4H50.4L17,53.1V6.4H0v93h17V76l13.5-18l21.2,41.4h19.4L42,44.3L68.7,6.4z M88.2,0
		c-5.7,0-9.6,4.2-9.6,9.4c0,5.3,3.8,9.2,9.6,9.2c5.6,0,9.6-3.9,9.6-9.2C97.8,4.2,93.9,0,88.2,0z M80,99.4h17v-70H80V99.4z
		 M142.5,27.4c-14.4,0-32.6,8.1-32.6,37.2c0,25.3,11.6,37.3,30.3,37.3c18.4,0,32.7-12.3,32.7-39.1C173,30.6,152.9,27.4,142.5,27.4z
		 M141.4,89.6c-12.4,0-14.5-14-14.5-27c0-13.4,4.6-22.9,14.8-22.9c10.6,0,14.3,9.6,14.3,25.3C155.9,79.5,151.6,89.6,141.4,89.6z
		 M208.2,39.6c5.9,0,11.7,2.9,17.1,7.5l8-9.8c-5.7-5.7-14.8-9.9-25.3-9.9c-13.6,0-25.6,7.7-25.6,22.2c0,14.5,11.5,17.9,21.7,20.8
		c6.6,2,11.9,3.9,11.9,10.2c0,6.3-4.8,8.9-10.6,8.9c-7.1,0-15.4-3.8-20-6.7l-4.9,11.9c3.6,2.8,13.6,7.1,25.6,7.1
		c15.7,0,26.4-7.8,26.4-22.4c0-14.4-11.3-18.4-21.5-21.7c-6.6-2-12.4-3.8-12.4-10.2C198.4,42.1,203.2,39.6,208.2,39.6z M304.6,29.4
		h-17.1l-25.4,43H261v-70h-16v97h14.5l15.2-25l11.8,25H304l-18.4-38.8L304.6,29.4z"/>
</g>
<g>
</g>
<g>
</g>
<g>
</g>
<g>
</g>
<g>
</g>
<g>
</g>
</svg>
