<?xml version="1.0" encoding="utf-8"?>
<!-- Generator: Adobe Illustrator 16.0.4, SVG Export Plug-In . SVG Version: 6.00 Build 0)  -->
<!DOCTYPE svg PUBLIC "-//W3C//DTD SVG 1.1//EN" "http://www.w3.org/Graphics/SVG/1.1/DTD/svg11.dtd">
<svg version="1.1" id="Layer_1" xmlns="http://www.w3.org/2000/svg" xmlns:xlink="http://www.w3.org/1999/xlink" x="0px" y="0px"
	 width="353.192px" height="291.244px" viewBox="0 0 353.192 291.244" enable-background="new 0 0 353.192 291.244"
	 xml:space="preserve">
<g>
	<path fill="#0067B1" d="M176.596,288.494c-95.859,0-173.846-64.093-173.846-142.873C2.75,66.842,80.737,2.75,176.596,2.75
		c95.858,0,173.846,64.092,173.846,142.871C350.442,224.401,272.455,288.494,176.596,288.494z"/>
	<path fill="#FFFFFF" d="M176.596,5.5c94.494,0,171.096,62.734,171.096,140.121c0,77.389-76.602,140.123-171.096,140.123
		C82.102,285.744,5.5,223.01,5.5,145.621C5.5,68.234,82.102,5.5,176.596,5.5 M176.596,0C129.627,0,85.424,15.017,52.128,42.285
		C35.831,55.632,23.022,71.2,14.059,88.556C4.73,106.618,0,125.818,0,145.621c0,19.804,4.73,39.003,14.059,57.066
		c8.964,17.356,21.772,32.924,38.069,46.271c33.295,27.268,77.5,42.285,124.468,42.285s91.172-15.018,124.468-42.285
		c16.297-13.348,29.105-28.915,38.069-46.271c9.328-18.063,14.059-37.263,14.059-57.066c0-19.803-4.73-39.003-14.059-57.065
		c-8.964-17.356-21.772-32.924-38.069-46.271C267.768,15.017,223.565,0,176.596,0L176.596,0z"/>
</g>
<g>
	<path fill="#0067B1" d="M176.596,274.014c-87.963,0-159.526-57.673-159.526-128.562S88.633,16.888,176.596,16.888
		s159.526,57.673,159.526,128.563S264.559,274.014,176.596,274.014z"/>
	<path fill="#FFFFFF" d="M176.596,19.638c86.586,0,156.776,56.328,156.776,125.813c0,69.484-70.19,125.812-156.776,125.812
		S19.82,214.936,19.82,145.451C19.82,75.966,90.01,19.638,176.596,19.638 M176.596,14.138c-43.124,0-83.717,13.517-114.3,38.06
		C47.307,64.227,35.524,78.262,27.274,93.914c-8.596,16.31-12.955,33.649-12.955,51.537s4.358,35.227,12.955,51.536
		c8.25,15.652,20.032,29.688,35.021,41.716c30.584,24.544,71.176,38.061,114.3,38.061s83.717-13.517,114.301-38.061
		c14.988-12.028,26.771-26.063,35.021-41.716c8.596-16.31,12.954-33.648,12.954-51.536s-4.358-35.228-12.954-51.537
		c-8.25-15.652-20.033-29.688-35.021-41.716C260.313,27.655,219.72,14.138,176.596,14.138L176.596,14.138z"/>
</g>
<g>
	<path fill="#FFFFFF" d="M130.396,122.939c0,0-1.929-1-5.41-0.943c-6.146,0.098-10.399,4.027-10.399,4.027l-1.567-4.084
		c-7.878,0-10.723,0-11.634,0c-0.17,0-0.279,0-0.333,0v63.225h14.802c0-11.021,0-34.51,0-38.289c0-3.465,1.653-5.178,2.986-6.383
		c3.963-3.586,11.557-3.693,11.557-3.693V122.939z"/>
	<path fill="#FFFFFF" d="M315.454,122.939c0,0-1.928-1-5.41-0.943c-6.146,0.098-10.398,4.027-10.398,4.027l-1.568-4.084
		c-7.877,0-10.723,0-11.634,0c-0.171,0-0.278,0-0.333,0v63.225h14.801c0-11.021,0-34.51,0-38.289c0-3.465,1.654-5.178,2.986-6.383
		c3.963-3.586,11.557-3.693,11.557-3.693V122.939z"/>
	<path fill="#FFFFFF" d="M243.678,191.49c0.955,0.975,1.432,2.125,1.432,3.451c0,1.365-0.48,2.533-1.438,3.508
		c-0.959,0.969-2.115,1.455-3.467,1.455c-1.359,0-2.518-0.482-3.477-1.447c-0.965-0.963-1.447-2.139-1.447-3.516
		c0-1.33,0.473-2.482,1.424-3.451c0.965-0.99,2.131-1.486,3.5-1.486C241.557,190.004,242.713,190.5,243.678,191.49z
		 M244.413,190.732c-1.16-1.166-2.566-1.746-4.207-1.746c-1.57,0-2.936,0.537-4.1,1.615c-1.238,1.154-1.859,2.6-1.859,4.34
		c0,1.676,0.576,3.088,1.725,4.234c1.145,1.148,2.557,1.723,4.234,1.723c1.621,0,3.01-0.561,4.168-1.68
		c1.191-1.16,1.787-2.584,1.787-4.277C246.161,193.299,245.579,191.895,244.413,190.732z M240.94,194.488
		c-0.227,0.164-0.541,0.242-0.945,0.242h-0.672v-1.914h0.42c0.43,0,0.764,0.047,1,0.139c0.359,0.137,0.535,0.391,0.535,0.752
		S241.165,194.326,240.94,194.488z M239.323,195.918h0.363l0.381,0.027c0.264,0.014,0.461,0.049,0.592,0.105
		c0.236,0.092,0.396,0.252,0.482,0.482c0.055,0.141,0.088,0.41,0.105,0.811c0.016,0.396,0.053,0.703,0.104,0.912h1.652l-0.059-0.188
		c-0.021-0.062-0.037-0.127-0.043-0.193c-0.01-0.064-0.014-0.127-0.014-0.193v-0.592c0-0.672-0.193-1.164-0.582-1.477
		c-0.209-0.168-0.523-0.295-0.938-0.381c0.453-0.049,0.834-0.197,1.143-0.443c0.311-0.248,0.465-0.648,0.465-1.205
		c0-0.729-0.291-1.254-0.879-1.578c-0.346-0.188-0.781-0.299-1.301-0.338c-0.092-0.004-0.547-0.01-1.361-0.01
		c-0.818-0.004-1.432-0.006-1.842-0.006v6.604h1.73V195.918z"/>
	<path fill="#FFFFFF" d="M178.806,153.57c0-17.471-8.273-31.631-24.299-31.631c-15.659,0-24.302,14.16-24.302,31.631
		s7.449,31.637,24.302,31.637C171.043,185.207,178.806,171.041,178.806,153.57z M144.623,153.527c0-11.318,2.82-19.504,9.929-19.504
		c7.159,0,9.928,8.186,9.928,19.504c0,11.316-2.77,19.502-9.928,19.502C147.442,173.029,144.623,164.844,144.623,153.527z"/>
	<path fill="#FFFFFF" d="M268.179,159.748c-0.918,7.971-3.826,13.281-9.586,13.281c-6.969,0-9.81-7.871-9.92-18.836
		c0.337,0,10.621,0,19.835,0c0,0.002,0,0.006,0,0.008h14.33c0-0.002,0-0.006,0-0.008c0.002,0,0.006,0,0.008,0
		c0.174-5.785-0.973-10.537-0.973-10.537h-0.004c-2.614-12.613-10.474-21.717-23.321-21.717c-15.66,0-24.302,14.16-24.302,31.631
		s7.449,31.637,24.302,31.637c14.533,0,22.279-10.947,23.943-25.459H268.179z M257.593,134.023c4.828,0,7.653,3.734,8.984,9.633
		h-17.961C249.958,137.758,252.795,134.023,257.593,134.023z"/>
	<path fill="#FFFFFF" d="M230.84,187.205c-0.048-4.613,0-65.398,0-65.398h-15.7l-0.002,3.477c-1.908-2.025-5.847-3.275-8.601-3.344
		c-15.74-0.391-24.421,14.014-24.421,31.582s7.497,31.637,24.444,31.637c3.281,0,6.206-1.383,8.81-2.412
		c0.722,12.359,1.154,53.156-25.941,54.008c-29.357,0.666-26.183-41.861-26.417-43.057c-2.007,0-16,0.043-16,0.043
		c-0.006,0.074-2.122,53.65,40.668,53.65C234.082,247.391,230.889,191.818,230.84,187.205z M206.598,173.086
		c-7.149,0-9.985-8.229-9.985-19.607c0-11.383,2.836-19.613,9.985-19.613c7.197,0,9.983,8.23,9.983,19.613
		C216.582,164.857,213.795,173.086,206.598,173.086z"/>
	<path fill="#FFFFFF" d="M122.935,55.64c-20.615,0-32.286,11.585-38.016,25.172c-0.006-0.002-0.018-0.007-0.018-0.007
		c-0.104,0.258-0.198,0.511-0.297,0.767c-0.026,0.066-0.056,0.131-0.082,0.197c0.002,0,0.003,0.001,0.005,0.001
		c-2.744,7.209-3.088,13.284-3.067,14.006c0.948,34.055-15.372,36.162-15.372,36.162c-0.273-2.902,0-39.682,0-39.682H50.413v92.906
		h15.73c0,0,0-35.902,0-38.738c0-1.572,13.911-0.076,14.855,17.639c0.084,1.572,0,21.1,0,21.1s16.188,0,16.604,0
		c-0.363-2.535,3.38-43.99-17.406-44.311c-3.316-0.051,17.129-4.744,16.502-35.295c-0.142-6.844,0.639-12.992,2.122-18.316
		c3.417-10.936,9.63-20.777,22.361-20.934c28.73-0.354,25.455,46.422,25.831,47.163c2.013,0,16-0.01,16-0.01
		C163.018,113.387,165.85,55.64,122.935,55.64z"/>
</g>
</svg>
