<svg id="Primary_Logo" data-name="Primary Logo" xmlns="http://www.w3.org/2000/svg" viewBox="0 0 186 61.36"><defs><style>.cls-1{fill:#231f20;}</style></defs><title>duluth-trading-logo-022116</title><path class="cls-1" d="M177.19,254.75a0.12,0.12,0,0,1-.17,0,3.39,3.39,0,0,0-2.22-.78,2,2,0,0,0-2.2,1.91V256a2,2,0,0,0,2.25,1.88,3.56,3.56,0,0,0,2.19-.78,0.12,0.12,0,0,1,.17,0L178,258a0.12,0.12,0,0,1,0,.17,4.94,4.94,0,0,1-3.31,1.12c-2.51,0-4.12-1.52-4.12-3.33v-0.13c0-1.81,1.68-3.37,4.15-3.37a5,5,0,0,1,3.34,1.14,0.13,0.13,0,0,1,0,.17Z" transform="translate(-87.79 -198)"/><path class="cls-1" d="M183.85,259.33c-2.41,0-4-1.57-4-3.34v-0.15c0-1.79,1.58-3.34,4-3.34s4,1.55,4,3.34V256C187.83,257.77,186.24,259.33,183.85,259.33Zm1.93-3.5a1.93,1.93,0,0,0-3.86,0V256a1.93,1.93,0,0,0,3.86,0v-0.16Z" transform="translate(-87.79 -198)"/><path class="cls-1" d="M166.77,252.74l0-.36-0.33.15a16.59,16.59,0,0,1-2.8.93,117.7,117.7,0,0,1-14.15,1.76l-6.49.42v0.42l6.49,0.33A101.33,101.33,0,0,1,163.92,258a7.55,7.55,0,0,1,2.44,1.08l0.3,0.23,0-.37a3.4,3.4,0,0,0-.26-1.51,5.75,5.75,0,0,0-.77-1.4l-0.09-.13a8.58,8.58,0,0,0,.86-1.67A6.55,6.55,0,0,0,166.77,252.74Z" transform="translate(-87.79 -198)"/><path class="cls-1" d="M215.33,255.62l-6.49-.33c-6.91-.47-12.29-1.09-14.39-1.66a7.56,7.56,0,0,1-2.44-1.08l-0.3-.23,0,0.37a3.4,3.4,0,0,0,.26,1.51,5.75,5.75,0,0,0,.77,1.4l0.09,0.13a8.56,8.56,0,0,0-.86,1.67,6.55,6.55,0,0,0-.33,1.53l0,0.36,0.33-.15a16.58,16.58,0,0,1,2.8-.93,117.71,117.71,0,0,1,14.15-1.76l6.49-.42v-0.42Z" transform="translate(-87.79 -198)"/><path class="cls-1" d="M151.45,249.58c-1.8.28-2.44-.4-2.44-2.21,0-1.06,0-.26,0-1.33a1.29,1.29,0,0,0-1.8-1.39c-0.66.15-2.35,0.45-2.35,0.45v5.65l-2.06.41c-0.95.2-2.29,0.53-2.29,0.53s0-11.05,0-17.55c2.37-.51,4.68-1,7.13-1.42,3.34-.62,5.53,1.09,5.48,3.9q0,1,0,1.95a3.9,3.9,0,0,1-2.64,3.71h0a2.57,2.57,0,0,1,2.72,2.63c0,1,0,.69,0,1.73a2.53,2.53,0,0,0,1.24,1.65,9.09,9.09,0,0,1-.55.91Zm-2.59-11.49c0-1.14-.2-2.08-1.52-1.82l-2.5.54v5.4s1.64-.29,2.31-0.47c1.29-.29,1.73-1.19,1.71-2.68v-1Z" transform="translate(-87.79 -198)"/><path class="cls-1" d="M183.7,247.56c-2.18,0-6.89,0-6.89,0l0-17.7s4.77,0,6.86,0c4.26,0.08,6.55,2.75,6.57,5.8,0,2.51,0,4.4,0,6.91C190.31,245.74,188,247.7,183.7,247.56Zm2.13-12a2.19,2.19,0,0,0-2.48-2.39l-2.11,0c0,3.86,0,11.11,0,11.11l2.11,0c1.72,0,2.49-.77,2.48-2.24C185.82,239.68,185.82,237.93,185.83,235.56Z" transform="translate(-87.79 -198)"/><path class="cls-1" d="M194.78,248.27c0-6.19,0-11.76,0-18,1.47,0.12,2.9.23,4.41,0.39,0,6.27,0,11.76,0,18C197.78,248.57,196.23,248.37,194.78,248.27Z" transform="translate(-87.79 -198)"/><path class="cls-1" d="M214.36,251.25s-5.13-9-5.73-10.19c0,3.64,0,9.07,0,9.07l-4.15-.67s0-11.81,0-18.17c1.26,0.17,2.39.29,3.76,0.51,1.51,2.88,5.67,11.52,6.24,12.73,0-3.77,0-7.93,0-11.71,1.22,0.22,2.23.44,3.91,0.77,0,6.68,0,18.6,0,18.6Z" transform="translate(-87.79 -198)"/><path class="cls-1" d="M132.41,240c0,5.19-.06,12.32-0.06,13.89l-4,1.25c0-1.55,0-8.61,0-13.94a40,40,0,0,0-4.15,1.71c0-1.15.1-2.86,0.1-4a122.5,122.5,0,0,1,12.12-3.74c0,1.17,0,2.56,0,3.72A25,25,0,0,0,132.41,240Z" transform="translate(-87.79 -198)"/><path class="cls-1" d="M229,245.44v3l1.59,0.35a0.33,0.33,0,0,1,.27.32v0c0,1,.23,2.18-1.84,2.34a2.06,2.06,0,0,1-2.28-2.22l0-8.13v0a1.69,1.69,0,0,1,2.17-1.72c1.88,0.28,2.08,1.79,2.14,3.08,0,0.23,0,.83,0,0.83s2.63,0.33,3.85.52v-1.42c0-2.93-2.06-5.6-6-6.45s-6.24,1.52-6.24,4.35v9.09s0,0.84,0,1c0.21,2.66,2.1,4.61,5.61,4.61,1.78,0,3.31-.49,4-1.91h0l0.51,1.73,2,0v-8.17Z" transform="translate(-87.79 -198)"/><path class="cls-1" d="M122,205.9c-0.08-1.84-.74-2.49-2.25-2.55H119.2s0-1.77,0-2.86,0-2.49,0-2.49,5.54,0.08,8.61.08,8.13-.08,8.13-0.08,0,1.44,0,2.33,0,2.41,0,2.41a3.64,3.64,0,0,0-1.89.33c-0.94.48-1,1.16-1.06,2.88-0.1,2.87-.09,12.64,0,15.45,0.15,3.64,1.29,4.85,4.07,4.5s4-1.78,4.16-5.26c0.14-2.39.08-12.87,0-14.86,0-1.43,0-2.36-1.31-2.89a7.11,7.11,0,0,0-1.52-.15s0-1.53,0-2.45,0-1.55,0-2.09c0-.08,0-0.2,0-0.2s3.77,0.08,5.72.08c2.42,0,6.73-.08,6.73-0.08s0,1.36,0,2.2,0,2.21,0,2.21h-0.49a2.13,2.13,0,0,0-2.39,2.31c-0.14,2.71,0,13,0,15.71,0,7.19-5,10.14-12.63,11.4-9.55,1.66-13.35.44-13.35-8.54C122,220.2,122.14,209.47,122,205.9Z" transform="translate(-87.79 -198)"/><path class="cls-1" d="M169.23,202.16h-0.62c-1.81,0-2.71.67-2.84,2.25s-0.15,13.84,0,15.61,1.15,2,2.79,2l0.66,0c2.64-.08,3.66-0.71,3.66-6.11,1.23,0,5.1,0,5.1,0v10.08s-5.12,0-12.37.56c-7,.51-13.37,1.52-13.37,1.52l0-5.09,0.9-.07c1.89-.14,2-1.11,2.15-2.75s0.17-14.19,0-15.48-0.58-2-1.41-2.1a8.09,8.09,0,0,0-1.45-.14s0.06-1.38.06-2.25c0-.58,0-2.13,0-2.13s5.37,0.08,8.41.08,8.36-.08,8.36-0.08-0.07,1.35-.08,2S169.23,202.16,169.23,202.16Z" transform="translate(-87.79 -198)"/><path class="cls-1" d="M179.56,204.25c-0.08-1.46-.9-2.09-2.38-2.09h-0.43c0-1,0-3.18,0-4.16,0,0,5.54.08,8.61,0.08s7.47-.08,8.13-0.08c0,0.5,0,1.29,0,2.08s0,2.13,0,2.13h-0.38c-1.48,0-2.42.6-2.5,2.07-0.12,2.43-.11,10.68,0,13.12,0.17,3.14,1.33,4.36,4.13,4.49s4-1,4.14-4.2c0.11-2.19.1-11.43,0-13.27a2,2,0,0,0-2.23-2.2H196s0-1.33,0-2.18,0-2,0-2,3.3,0.07,5.72.08,6.07-.08,6.72-0.08c0,0.52,0,1.35,0,2.18s0,2.24,0,2.24h-0.67c-1.5,0-2.11.61-2.19,2.15-0.11,2.64,0,11.07,0,13.75,0,7.12-4.92,8.93-12.59,8.51-9.65-.47-13.53-3.09-13.53-9.08C179.52,215.32,179.69,207.07,179.56,204.25Z" transform="translate(-87.79 -198)"/><path class="cls-1" d="M230.12,203.35c-0.07,3.94,0,18.23.09,19.54a3,3,0,0,0,2.78,3.06l0.86,0.13c0,1.11,0,7.68,0,7.68s-4.41-1.47-8.84-2.6c-4-1-8.8-2-8.8-2s0-4.4,0-5.41l0.86,0.09c1.88,0.21,2.7-.66,2.81-2.16,0.08-1.28.08-15,0-18.7l-0.94,0c-2-.05-2.66,1.16-2.77,3.19L216,208.8c-1.35-.15-4.27-0.3-5.62-0.3,0.11-2.52,0-7.78-.25-10.38V198l15.32,0.08,14.35-.08v0.14c-0.2,3.13-.31,9.43-0.19,12.46-1.35-.21-4.24-0.47-5.59-0.51l-0.17-3c-0.13-2.29-.83-3.69-2.79-3.76Z" transform="translate(-87.79 -198)"/><path class="cls-1" d="M108.32,198H87.86v5.05s3-.08,3,2.3v42.79c0,2.3-3,2-3,2v5.34h19.93c2.36,0,10.88-1,10.88-14.21,0-.36,0-30.2,0-30.54C118.11,198.52,109.8,198,108.32,198Zm-4.94,51.67c-2.05,0-2.44-1.15-2.44-1.15V204.43c0-.77.91-1.07,2.21-1.07s4.69,0.28,5,7.22c0,0.33,0,28,0,28.38C108.17,246.92,105.43,249.67,103.38,249.67Z" transform="translate(-87.79 -198)"/><path class="cls-1" d="M241.31,198l8.43,0.08,6.71-.08v5.11s-2.12,0-2.12,1.89c0,1.67,0,8.8,0,8.8h6.62s0-8,0-8.78a2,2,0,0,0-2-1.91V198l7.92,0.08,6.92-.08v5.1s-2.74-.17-2.74,2.39v42.81c0,1.75,2.81,1.75,2.81,1.75v5.41H258.68V249.9s2-.15,2-1.52v-26.1h-6.39v26.09c0,1.41,1.89,1.53,1.89,1.53v5.57H241.31V250s3,0.15,3-1.9V205.5c0-2.51-3-2.39-3-2.39V198Z" transform="translate(-87.79 -198)"/><path class="cls-1" d="M172.6,247.63c-1.6-6-3.65-11.33-5.24-17.38-1.67.11-3.37,0.26-4.86,0.4-1,4-1.87,6.68-2.87,10.76a4.33,4.33,0,0,1-1,0,6.65,6.65,0,0,1-1.23-.42,6.84,6.84,0,0,0,1,2.73,2.33,2.33,0,0,0,.59.48s-0.95,3.33-1.25,4.57c1.43-.17,4-0.42,4-0.42l1.09-4.22,4.43-1,1.11,4.75C169.47,247.75,171.75,247.66,172.6,247.63Zm-9.07-6.7,1.49-5.47,1.56,4.79Z" transform="translate(-87.79 -198)"/></svg>