<?xml version="1.0" encoding="utf-8"?>
<!-- Generator: Adobe Illustrator 21.1.0, SVG Export Plug-In . SVG Version: 6.00 Build 0)  -->
<svg version="1.1" id="Layer_1" xmlns="http://www.w3.org/2000/svg" xmlns:xlink="http://www.w3.org/1999/xlink" x="0px" y="0px"
	 viewBox="0 0 290.8 79.5" style="enable-background:new 0 0 290.8 79.5;" xml:space="preserve">
<style type="text/css">
	.st0{fill:#256B79;}
</style>
<path class="st0" d="M52.2,1.8H32.1L0,77.7h15.9c0-3.4,2.7-6.1,6.1-6.1c0.5,0,1,0.1,1.4,0.2c0,0.2,0,0.5,0,0.7
	c0,1.9,0.6,3.7,1.6,5.2h1.5c-1.4-1.5-2.2-3.5-2.3-5.7c0-0.1,0-0.3,0-0.4c0-2.1,0.7-4,1.9-5.5c1.6-2.1,4.2-3.5,7.1-3.5
	c1.6,0,3.1,0.4,4.4,1.2c1.5-3.9,2.5-8.6,2.7-14.4l-3.8,3.8v-7l3.5-3.5c-4.1-11.2,1.8-17.2,1.8-17.2s5.8,6,1.8,17.2l3.5,3.5v7
	l-3.8-3.8c0.3,8.9,2.6,15.3,5.5,19.8c1.4-0.9,3.1-1.4,4.9-1.4c0.3,0,0.5,0,0.8,0c3.5,0.3,6.5,2.7,7.7,5.9c0.4,1,0.5,2,0.5,3.1
	c0,0.3,0,0.5,0,0.8h1.5c0-0.3,0-0.5,0-0.8c0-1.1-0.2-2.2-0.6-3.2c2.6,0.1,4.8,1.7,5.6,4h15.1L52.2,1.8z"/>
<path id="XMLID_5_" class="st0" d="M94,20.1H71.1V1.5h67.1v18.6h-22.9V78H94V20.1z"/>
<path id="XMLID_7_" class="st0" d="M148.3,1.5h21.2v57.9h37V78h-58.2V1.5z"/>
<path id="XMLID_2_" class="st0" d="M208.4,40v-0.2c0-22,17.7-39.8,41.3-39.8s41.1,17.6,41.1,39.6v0.2c0,22-17.7,39.8-41.3,39.8
	S208.4,61.9,208.4,40z M269.1,40v-0.2c0-11-8-20.7-19.7-20.7c-11.6,0-19.3,9.4-19.3,20.4v0.2c0,11,8,20.6,19.6,20.6
	C261.4,60.4,269.1,51,269.1,40z"/>
</svg>
