<svg version="1.1" viewBox="0.0 0.0 702.5721784776903 150.9501312335958" fill="none" stroke="none" stroke-linecap="square" stroke-miterlimit="10" xmlns:xlink="http://www.w3.org/1999/xlink" xmlns="http://www.w3.org/2000/svg"><clipPath id="p.0"><path d="m0 0l702.5722 0l0 150.95013l-702.5722 0l0 -150.95013z" clip-rule="nonzero"/></clipPath><g clip-path="url(#p.0)"><path fill="#000000" fill-opacity="0.0" d="m0 0l702.5722 0l0 150.95013l-702.5722 0z" fill-rule="evenodd"/><path fill="#000000" fill-opacity="0.0" d="m5.6535435 6.5879264l290.07874 0l0 137.88977l-290.07874 0z" fill-rule="evenodd"/><path stroke="#ffffff" stroke-width="1.0" stroke-linejoin="round" stroke-linecap="butt" d="m5.6535435 6.5879264l290.07874 0l0 137.88977l-290.07874 0z" fill-rule="evenodd"/><path fill="#017bff" d="m36.810097 87.83343l13.5 -1.3125q1.21875 6.796875 4.9375 9.984375q3.734375 3.1875 10.0625 3.1875q6.703125 0 10.09375 -2.828125q3.40625 -2.84375 3.40625 -6.640625q0 -2.4375 -1.4375 -4.140625q-1.421875 -1.71875 -4.984375 -2.984375q-2.4375 -0.84375 -11.109375 -3.0q-11.15625 -2.765625 -15.65625 -6.796875q-6.328125 -5.671875 -6.328125 -13.828129q0 -5.25 2.96875 -9.8125q2.984375 -4.578125 8.578125 -6.96875q5.609375 -2.390625 13.53125 -2.390625q12.9375 0 19.46875 5.671875q6.546875 5.671875 6.875 15.140625l-13.875 0.609375q-0.890625 -5.296875 -3.828125 -7.609375q-2.921875 -2.328125 -8.78125 -2.328125q-6.046875 0 -9.46875 2.484375q-2.203125 1.59375 -2.203125 4.265625q0 2.4375 2.0625 4.171875q2.625 2.2031288 12.75 4.593754q10.125 2.390625 14.96875 4.953125q4.859375 2.546875 7.59375 6.984375q2.75 4.421875 2.75 10.9375q0 5.90625 -3.28125 11.0625q-3.28125 5.15625 -9.28125 7.671875q-6.0 2.5 -14.953125 2.5q-13.03125 0 -20.015625 -6.015625q-6.984375 -6.03125 -8.34375 -17.5625zm67.125 22.359375l0 -68.71875l13.875 0l0 68.71875l-13.875 0zm59.062508 -25.265625l0 -11.578125l29.90625 0l0 27.375q-4.359375 4.21875 -12.640625 7.4375q-8.265625 3.203125 -16.75 3.203125q-10.78125 0 -18.796875 -4.515625q-8.015625 -4.53125 -12.046875 -12.9375q-4.03125 -8.421875 -4.03125 -18.3125q0 -10.734375 4.5 -19.078129q4.5 -8.34375 13.171875 -12.796875q6.609375 -3.421875 16.453125 -3.421875q12.796875 0 19.984375 5.375q7.203125 5.359375 9.265625 14.828125l-13.78125 2.578125q-1.453125 -5.0625 -5.46875 -7.984375q-4.0 -2.9375 -10.0 -2.9375q-9.09375 0 -14.46875 5.765625q-5.359375 5.765625 -5.359375 17.109379q0 12.234375 5.4375 18.359375q5.4375 6.109375 14.25 6.109375q4.359375 0 8.734375 -1.703125q4.390625 -1.71875 7.53125 -4.15625l0 -8.71875l-15.890625 0zm42.84375 25.265625l0 -68.71875l13.5 0l28.125 45.89063l0 -45.89063l12.89061 0l0 68.71875l-13.92186 0l-27.703125 -44.8125l0 44.8125l-12.890625 0z" fill-rule="nonzero"/><path fill="#000000" fill-opacity="0.0" d="m306.5853 20.763779l387.874 0l0 106.3937l-387.874 0z" fill-rule="evenodd"/><path fill="#017bff" d="m319.05405 86.26125l13.5 -1.3125q1.21875 6.796875 4.9375 9.984375q3.734375 3.1875 10.0625 3.1875q6.703125 0 10.09375 -2.828125q3.40625 -2.84375 3.40625 -6.640625q0 -2.4375 -1.4375 -4.140625q-1.421875 -1.71875 -4.984375 -2.984375q-2.4375 -0.84375 -11.109375 -3.0q-11.15625 -2.765625 -15.65625 -6.796875q-6.328125 -5.671875 -6.328125 -13.828125q0 -5.25 2.96875 -9.8125q2.984375 -4.578125 8.578125 -6.96875q5.609375 -2.390625 13.53125 -2.390625q12.9375 0 19.46875 5.671875q6.546875 5.671875 6.875 15.140625l-13.875 0.609375q-0.890625 -5.296875 -3.828125 -7.609375q-2.921875 -2.328125 -8.78125 -2.328125q-6.046875 0 -9.46875 2.484375q-2.203125 1.59375 -2.203125 4.265625q0 2.4375 2.0625 4.171875q2.625 2.203125 12.75 4.59375q10.125 2.390625 14.96875 4.953125q4.859375 2.546875 7.59375 6.984375q2.75 4.421875 2.75 10.9375q0 5.90625 -3.28125 11.0625q-3.28125 5.15625 -9.28125 7.671875q-6.0 2.5 -14.953125 2.5q-13.03125 0 -20.015625 -6.015625q-6.984375 -6.03125 -8.34375 -17.5625zm67.125 22.359375l0 -68.71875l13.875 0l0 68.71875l-13.875 0zm26.90625 0l0 -68.71875l20.765625 0l12.46875 46.875l12.328125 -46.875l20.8125 0l0 68.71875l-12.890625 0l0 -54.09375l-13.640625 54.09375l-13.359375 0l-13.59375 -54.09375l0 54.09375l-12.890625 0zm80.15625 0l0 -68.71875l22.265656 0q12.65625 0 16.5 1.03125q5.90625 1.546875 9.890625 6.734375q3.984375 5.171875 3.984375 13.375q0 6.328125 -2.296875 10.640625q-2.296875 4.3125 -5.84375 6.78125q-3.53125 2.453125 -7.1875 3.25q-4.96875 0.984375 -14.390625 0.984375l-9.0469055 0l0 25.921875l-13.875 0zm13.875 -57.09375l0 19.5l7.5937805 0q8.203125 0 10.96875 -1.078125q2.765625 -1.078125 4.328125 -3.375q1.578125 -2.296875 1.578125 -5.34375q0 -3.75 -2.203125 -6.1875q-2.203125 -2.4375 -5.578125 -3.046875q-2.484375 -0.46875 -9.984375 -0.46875l-6.7031555 0zm50.53128 57.09375l0 -68.15625l13.875 0l0 56.578125l34.5 0l0 11.578125l-48.375 0zm58.265625 0l0 -68.71875l50.953125 0l0 11.625l-37.078125 0l0 15.234375l34.5 0l0 11.578125l-34.5 0l0 18.703125l38.390625 0l0 11.578125l-52.265625 0z" fill-rule="nonzero"/><path fill="#017bff" d="m5.6535435 6.7480316l13.322834 0l0 135.84251l-13.322834 0z" fill-rule="evenodd"/><path stroke="#017bff" stroke-width="1.0" stroke-linejoin="round" stroke-linecap="butt" d="m5.6535435 6.7480316l13.322834 0l0 135.84251l-13.322834 0z" fill-rule="evenodd"/><path fill="#017bff" d="m282.7874 6.7480316l12.944855 0l0 135.84251l-12.944855 0z" fill-rule="evenodd"/><path stroke="#017bff" stroke-width="1.0" stroke-linejoin="round" stroke-linecap="butt" d="m282.7874 6.7480316l12.944855 0l0 135.84251l-12.944855 0z" fill-rule="evenodd"/><path fill="#017bff" d="m5.6535435 6.5879264l290.07874 0l0 13.826771l-290.07874 0z" fill-rule="evenodd"/><path stroke="#017bff" stroke-width="1.0" stroke-linejoin="round" stroke-linecap="butt" d="m5.6535435 6.5879264l290.07874 0l0 13.826771l-290.07874 0z" fill-rule="evenodd"/><path fill="#017bff" d="m5.6535435 130.65092l290.07874 0l0 13.826767l-290.07874 0z" fill-rule="evenodd"/><path stroke="#017bff" stroke-width="1.0" stroke-linejoin="round" stroke-linecap="butt" d="m5.6535435 130.65092l290.07874 0l0 13.826767l-290.07874 0z" fill-rule="evenodd"/></g></svg>